<svg width="165" height="150" viewBox="0 0 165 150" fill="none" xmlns="http://www.w3.org/2000/svg">
<rect width="165" height="150" fill="white"/>
<path d="M83.0044 36C55.4384 36 33 53.0239 33 73.96C33 94.8962 55.4326 113.243 83.0044 113.243C110.576 113.243 133 94.8817 133 73.96C133.006 53.0239 110.576 36 83.0044 36ZM83.0102 110.65C59.1419 110.65 39.7225 93.5244 39.7225 74.0035C39.7225 54.4826 59.1419 38.5927 83.0102 38.5927C106.878 38.5927 126.298 54.4768 126.298 74.0064C126.298 93.536 106.884 110.653 83.0102 110.653V110.65Z" fill="#0033A0"/>
<path d="M73.4656 90.2991L74.3241 91.172L76.0554 92.1407L77.694 93.0368L77.9028 93.1528L79.1093 93.8256L81.1452 94.9364C81.267 94.9712 81.5135 94.9712 81.5135 94.9712L84.1266 94.8059C85.6288 94.7769 87.3747 94.8059 88.5522 95.3395C89.8456 96.0036 89.4048 97.2014 89.4048 97.2014C89.4048 97.2014 90.7418 96.2473 90.4866 95.1162C90.3561 94.1563 89.2018 92.8918 85.3881 92.6685C84.1904 92.596 82.3836 92.7613 82.3836 92.7613H82.2183C82.2183 92.7323 80.5072 91.636 80.5072 91.636L79.7937 91.2242C79.6922 91.1807 77.4243 89.9829 77.4243 89.9829C77.4243 89.9829 75.9887 89.4203 75.98 89.4116C75.98 89.3681 74.6953 87.57 74.6953 87.57L74.2254 86.9059L72.8537 84.928L72.2678 84.0695C72.233 84.0202 71.4819 82.8573 71.4819 82.8573C71.5457 82.8718 72.2621 81.7755 72.1808 80.6039C72.0793 80.7634 72.0068 80.7982 71.4732 81.2622C70.9309 81.703 69.33 82.4252 68.254 82.7065L67.7697 82.837L71.595 87.8629L73.4569 90.302L73.4656 90.2991ZM79.7473 87.454L80.0083 87.7875C80.1156 87.8803 81.7339 88.5242 81.7339 88.5242C82.8157 88.965 84.2977 89.6436 84.9821 90.0612L86.8092 91.1372C86.9542 91.1952 88.8393 91.0589 90.0719 91.1575C91.6234 91.2793 92.8299 91.8651 93.4592 92.7758C94.3032 93.9735 93.2794 95.2583 93.2794 95.2583C93.5027 95.1423 95.2573 94.0315 95.1355 92.2538C95.0195 90.5514 93.5462 88.9534 88.0824 89.0201C88.0824 89.0056 86.5801 88.1326 86.5801 88.1326L86.1393 87.8716L83.7147 86.6304C83.7147 86.6304 81.7426 85.9575 81.7368 85.9575C81.7368 85.885 81.2757 85.0904 81.2757 85.0904C80.6319 83.9361 79.7444 82.7935 78.9788 81.7842L78.741 81.4942C78.741 81.4942 77.3982 79.6381 77.2387 79.409C77.665 78.4926 77.3025 77.1701 77.3025 77.1701C77.3025 77.1701 77.0792 77.6109 76.7022 78.0807C76.3281 78.5564 75.3391 79.3452 74.646 79.7193L74.2777 79.9571L79.2369 86.729L79.7502 87.4511L79.7473 87.454ZM81.9862 75.3314C82.2908 74.2409 81.7107 73.1737 81.7107 73.1737L81.4149 73.8668C81.1684 74.4672 80.513 75.1516 79.495 75.8099L79.1905 75.9752L83.1985 81.7088L83.4363 82.0829L84.202 83.1154C84.3035 83.2169 85.8782 84.1043 85.8782 84.1043L86.4699 84.4379L88.2738 85.5138L89.9268 86.6188L90.0487 86.6536L92.5167 86.8131C94.0045 86.9349 94.8716 87.4917 95.3182 87.8107C96.8785 88.936 96.0404 90.6181 96.0404 90.6181C96.0404 90.6181 98.1256 88.646 96.7538 86.5173C96.2405 85.7806 95.5328 85.073 93.4534 84.8352L90.9042 84.4814C90.9042 84.4611 89.5324 83.5359 89.5324 83.5359L87.743 82.4252L87.2819 82.1496L85.8086 81.5058L81.9833 75.3343L81.9862 75.3314ZM65.322 41.3214C65.4525 41.4519 65.8701 41.8695 65.8701 41.8782L67.8915 43.7256L69.0458 44.816C69.8984 45.631 70.0985 46.0515 70.0695 46.2168C70.0347 46.3763 69.8752 46.4488 69.7244 46.5358C69.5736 46.6228 69.3358 46.6808 69.3358 46.6808L69.243 47.4465L69.7186 47.4262C72.3839 47.3624 74.8867 49.1663 76.5137 50.6975C79.3297 53.3831 81.4584 57.7362 81.9282 61.8022L84.1295 73.252L84.9589 75.0124L85.1184 75.372L85.478 76.1231C85.7883 76.8656 86.2727 77.5297 86.3162 77.5732C86.3655 77.6225 87.4559 78.4897 87.4559 78.4897L89.0452 80.1137L89.515 80.6184L90.272 81.3753C90.33 81.4188 92.5747 81.7088 92.5747 81.7088C96.4812 82.3585 96.3072 84.5249 96.3072 84.5249C96.3072 84.5249 98.6331 80.9577 93.088 79.7106C93.088 79.7106 91.3421 79.3771 91.3044 79.3771V79.3713C91.3044 79.3278 90.6838 78.4839 90.6838 78.4839C90.6113 78.4056 90.475 78.2518 90.475 78.2518C90.4402 78.2083 88.7842 76.5756 88.7842 76.5756L88.0273 75.8534L87.3341 73.9973L86.351 71.6221C86.0987 70.8942 85.9391 69.7225 85.7158 68.1129C85.7013 68.0491 85.5418 66.95 85.5418 66.95L84.8139 62.1502C84.8197 62.0719 84.9792 61.2106 84.9792 61.2106C85.2982 59.4125 85.9681 57.4201 86.9861 55.2827C88.2071 52.7189 90.7186 51.0311 90.7534 51.0166C92.6298 49.8536 95.382 49.2127 96.8611 48.9313C97.4237 48.8733 97.6035 48.5427 97.705 48.2092L97.7688 48.0149L97.5803 47.9859C96.7654 47.8351 95.8199 47.5596 95.7474 47.4088C95.7329 47.3798 95.7184 47.316 95.7184 47.2638C95.7184 47.1188 95.8257 46.8896 96.023 46.5909C96.0288 46.5909 97.2294 45.4367 97.2294 45.4367L97.9284 44.7435C97.9284 44.7435 100.86 41.9072 101.249 41.5302L98.5258 40.6137C98.1662 40.982 95.5154 43.7314 95.5154 43.7314C93.523 45.8688 91.2783 48.2875 90.2459 48.7138C87.7198 49.7463 85.1271 52.2143 84.1034 54.5837C84.1034 54.5895 83.6567 55.7525 83.4102 56.3876C82.6446 54.1777 81.6846 52.3506 80.3767 50.7555C78.9469 49.0445 77.201 47.7597 75.0259 46.878C73.8484 45.7586 69.9709 42.2146 67.8712 40.489L65.3162 41.3185L65.322 41.3214ZM75.6668 99.1126C72.1083 100.925 70.1362 99.3504 71.0034 97.445C72.1663 98.2252 73.9644 98.7965 75.6668 99.1126ZM69.5591 96.4068C67.1346 97.0709 66.2384 95.3685 66.8098 93.9822C67.2709 94.5159 68.982 96.0529 69.5591 96.4068ZM47.7558 53.009C47.9443 53.1395 48.4199 53.4846 48.4199 53.4846C48.4837 53.5281 51.4941 56.0251 51.9436 56.4021C51.8711 56.5964 50.6298 60.0273 50.6298 60.0273C49.4959 62.8869 48.3561 65.7667 48.2894 68.0404L48.3097 68.4087C48.3155 68.458 49.2929 73.5565 49.2929 73.5565L49.3654 73.9306C49.9135 76.6104 50.5341 79.6555 50.7952 81.8422C50.8532 82.4629 51.004 82.8399 51.2418 82.982C52.7296 84.5278 55.1541 87.6686 58.0861 93.6603C58.1731 93.8198 58.2166 93.9126 58.2601 93.9793C58.5414 94.803 58.8953 95.3569 59.3129 95.6266C59.8465 95.9601 60.8645 95.9804 61.5286 95.6266C63.0309 94.6435 64.0923 93.2659 64.7478 91.5983C64.9798 91.8738 65.6004 92.6888 65.7019 92.8048C63.1759 97.1811 67.645 98.7965 69.2256 98.1759C68.3091 100.827 71.6936 102.955 74.878 101.54C75.2898 103.257 76.6529 103.764 77.9521 104.008C79.2456 104.269 81.0002 104.405 83.8713 104.144C88.1897 103.791 92.1078 102.468 93.6825 101.653C97.0119 99.9566 98.8216 97.7988 99.8918 96.2821C99.9063 96.2473 100.101 96.0153 100.231 95.8354C100.585 96.4648 100.953 97.0477 101.371 97.4972C102.432 98.5355 103.427 98.9995 104.245 98.8545C104.822 98.7472 105.277 98.3934 105.582 97.7292C107.061 94.1708 110.289 89.7799 112.815 86.8421C112.815 86.8363 113.053 86.3723 113.053 86.3723C113.609 84.2871 115.573 79.1161 116.62 76.3232L117.362 74.3163L117.507 73.832C117.557 73.0316 117.586 72.2282 117.586 71.4423C117.586 67.8461 117.066 64.4094 116.077 61.5093C115.593 60.036 115.103 59.1486 114.642 58.2814L114.108 57.307C114.83 56.2397 116.924 54.8244 118.606 53.6905C118.606 53.6905 118.699 53.6325 118.737 53.618L116.672 51.3588C116.542 51.4458 115.228 52.3564 115.228 52.3564C113.725 53.3802 112.209 53.792 111.263 53.4179C111.127 53.3686 109.877 52.6609 109.877 52.6609C109.804 52.6116 109.581 52.5101 109.581 52.5101C109.538 52.5043 109.155 52.4521 109.155 52.4521C109.106 52.4521 108.694 52.5449 108.694 52.5449L108.418 52.6087L108.845 53.0989C109.726 54.1458 110.181 55.042 110.817 56.26C110.831 56.289 111.199 56.9735 111.199 56.9735L111.559 57.8174L111.632 57.9914L112.107 59.2182L112.194 59.4792L112.455 60.1868L113.453 63.6815C114.297 67.24 114.723 70.172 114.746 72.6778C114.746 72.7126 114.712 72.9678 114.712 72.9678C114.706 72.9823 113.543 76.2594 113.543 76.2594C112.336 79.6671 110.828 83.9042 110.489 85.653L110.416 85.8618C107.189 89.226 104.9 93.1963 103.926 95.5657C103.775 95.876 103.665 95.9195 103.621 95.9253C103.471 95.9543 103.094 95.6063 102.893 95.4207C102.084 94.6928 101.6 93.176 101.658 91.5664C101.736 89.603 102.583 87.8484 103.998 86.7435C104.23 86.5695 104.143 86.2447 104.091 86.059C103.703 83.8201 104.329 80.3922 105.715 79.4177L106.069 79.1567L105.724 78.8899C101.768 75.8215 99.8338 70.1546 99.6655 65.9233L99.6452 65.3665L99.0304 65.6275C98.9579 65.6855 98.7259 66.0451 98.7259 66.0451C98.5664 66.8688 98.5026 67.7069 98.5026 68.5131C98.5026 70.6854 98.9202 72.585 99.0942 73.2636C99.6423 75.604 100.797 77.7617 102.496 79.7106L102.569 79.7976C101.832 80.7228 101.507 82.9733 101.507 84.7076C101.507 85.2412 101.536 85.6965 101.6 86.0706C99.7525 87.6657 99.2392 89.6958 99.1377 91.1314C99.1377 91.1314 99.1957 92.6627 99.1957 92.6772C99.1754 92.6424 98.2938 93.8169 98.2938 93.8169L98.1198 94.0692C96.3652 96.488 95.1297 98.1759 92.1919 99.6868C88.9872 101.349 82.7925 102.494 78.7642 102.097C77.2851 101.932 77.4417 100.603 77.4417 100.537C77.4417 100.357 77.5055 100.162 77.6447 99.9885C77.6447 99.9885 77.9405 99.6694 78.0275 99.5766C81.8383 100.009 85.4722 99.5476 86.9803 98.7472C87.0441 98.6892 87.5081 97.9961 87.5081 97.9961L87.6879 97.6712L87.3196 97.7582C84.0773 98.5732 77.6447 97.5059 74.237 96.0617C70.4553 94.4434 69.2981 92.915 66.2007 88.8287L65.3336 87.6947C65.3046 86.555 64.9943 85.392 64.4462 84.4089C63.927 83.4924 63.2397 82.9066 63.0396 82.7471C63.2716 82.0626 63.4079 81.1085 63.4079 80.0963C63.4079 78.7246 63.1556 77.3383 62.68 76.5669C64.9827 74.7688 66.1456 72.9214 66.1166 70.7985C66.0963 69.795 65.5453 68.2637 65.5453 68.2637L64.6637 67.8519L64.7217 68.4377C65.0755 72.0252 61.7316 74.3511 59.5159 75.9027C59.5159 75.9085 58.8663 76.3493 58.8663 76.3493L59.2926 76.6162C61.024 77.6979 61.053 81.3463 60.6557 83.3967L60.6354 83.5127L60.7282 83.678L60.8297 83.7273L61.6591 84.4002C63.405 86.7464 63.2629 90.3774 61.3401 92.5235C60.9515 92.9266 60.7398 92.9788 60.6325 92.9701C60.3424 92.9121 60.1191 92.2422 60.0553 92.0159C60.0408 91.9869 59.513 90.8907 59.513 90.8907C58.0049 87.744 56.7347 85.102 53.7939 81.5928C53.7939 81.587 53.7214 81.3115 53.7214 81.3115C53.1501 76.7119 52.4366 73.3042 51.7348 70.0212L51.352 68.2376L51.3085 67.7765C51.5173 64.2818 52.6019 61.5383 53.8635 58.3626L54.6292 56.376L55.2643 54.8592L55.3803 54.6359C56.1227 53.5745 57.1262 52.5652 58.3413 51.6314L58.8837 51.2283L58.176 50.9324C58.176 50.9324 56.8043 51.0833 55.4267 51.7619L55.1802 51.8779C54.168 52.3477 53.0138 52.716 52.1408 52.3767C52.1408 52.3767 49.8236 50.9992 49.7076 50.9324L47.75 53.0119L47.7558 53.009Z" fill="#0033A0"/>
</svg>
