<svg width="165" height="150" viewBox="0 0 165 150" fill="none" xmlns="http://www.w3.org/2000/svg">
<rect width="165" height="150" fill="white"/>
<path d="M127.846 45.8201L118.86 59.7997C118.693 60.0502 118.279 60.2145 118.028 60.0502C97.3092 49.6477 73.3446 68.788 52.2082 64.2117C52.0412 64.1282 51.8743 64.0447 51.7099 63.8777C51.7934 63.8777 41.5579 48.2335 38.1478 42.9918C37.7329 42.3265 38.2313 41.4107 39.1471 41.4942C40.9787 41.9091 48.9651 43.6572 55.1226 44.1581C87.1572 45.9062 104.549 26.6849 127.765 44.9069C128.016 45.0739 128.099 45.4887 127.849 45.8227L127.846 45.8201ZM101.719 85.8438C101.886 85.9272 102.053 85.8438 102.217 85.6768L113.034 68.7854C113.201 68.535 113.034 68.2871 112.784 68.2036C97.0561 62.7949 82.3303 73.1974 59.8633 73.7793C59.2815 73.7793 58.6997 74.4446 59.1145 75.1934L83.3296 112.637C83.6636 113.302 84.4933 112.887 84.4124 112.303L79.1707 88.5885C79.0872 88.3381 79.2542 88.1737 79.4212 88.0902C81.5007 87.5084 95.2298 82.8485 101.721 85.8438H101.719Z" fill="#E53D2E"/>
</svg>
