<svg width="165" height="150" viewBox="0 0 165 150" fill="none" xmlns="http://www.w3.org/2000/svg">
<rect width="165" height="150" fill="white"/>
<path d="M117.392 72.2545C115.528 72.2394 114.005 73.7359 113.988 75.5999C113.988 75.6866 113.99 75.7752 113.996 75.8619C113.932 77.7919 115.443 79.4091 117.373 79.4731C117.396 79.4731 117.419 79.4731 117.443 79.4731C119.32 79.4731 120.845 77.954 120.845 76.0749C120.845 76.0033 120.843 75.9317 120.838 75.86C120.902 73.9319 119.392 72.3186 117.466 72.2526C117.441 72.2526 117.417 72.2526 117.392 72.2526V72.2545ZM90.2667 72.2545C88.4027 72.2394 86.8798 73.7359 86.8628 75.5999C86.8628 75.6866 86.8647 75.7752 86.8704 75.8619C86.8063 77.7919 88.3179 79.4091 90.2479 79.4731C90.2705 79.4731 90.2931 79.4731 90.3176 79.4731C92.1948 79.4731 93.7196 77.954 93.7196 76.0749C93.7196 76.0033 93.7177 75.9317 93.7121 75.86C93.7762 73.9319 92.2665 72.3186 90.3402 72.2526C90.3157 72.2526 90.2912 72.2526 90.2667 72.2526V72.2545ZM61.0547 72.0377C59.9974 72 58.9871 72.4769 58.3426 73.3175C57.7074 74.2052 57.4511 75.3078 57.6301 76.384L63.7839 73.8339C63.3183 72.7408 62.2421 72.034 61.0547 72.0377ZM33 58V91.334H133V58H33ZM53.8587 82.2796H42.2787V65.6126H45.8503V79.0453H53.8587V82.2796ZM61.4298 79.6918C62.7849 79.72 64.1005 79.2357 65.1126 78.3329L67.3385 80.0461C65.7534 81.6199 63.6086 82.5001 61.3752 82.4963C57.7244 82.8563 54.4731 80.1893 54.1131 76.5404C53.7532 72.8896 56.4201 69.6384 60.069 69.2784C60.3743 69.2483 60.6816 69.2389 60.9869 69.2521C62.9018 69.1559 64.7602 69.9193 66.0531 71.3347C66.8975 72.3581 67.4328 73.6002 67.5949 74.9177L58.5857 78.6683C59.3566 79.377 60.3819 79.7464 61.4279 79.6937L61.4298 79.6918ZM81.7759 82.2796H78.2551V74.9799C78.1929 73.4193 76.8755 72.2036 75.3149 72.2658C75.3055 72.2658 75.2979 72.2658 75.2885 72.2658C73.7731 72.1734 72.4689 73.3288 72.3765 74.8442C72.3746 74.8894 72.3728 74.9346 72.3709 74.978V82.2777H68.8577V69.4481H72.3822V71.2857C73.383 69.9984 74.9191 69.2426 76.5494 69.2313C79.2729 69.0805 81.6025 71.1651 81.7532 73.8886C81.7608 74.0337 81.7626 74.1788 81.7589 74.324L81.7759 82.2777V82.2796ZM90.0424 82.4963C86.3803 82.3417 83.5362 79.2488 83.6908 75.5849C83.8453 71.9228 86.9382 69.0787 90.6022 69.2332C94.155 69.3821 96.9595 72.3073 96.9614 75.8638C96.9463 79.5448 93.9477 82.517 90.2667 82.502C90.1932 82.502 90.1197 82.502 90.0462 82.4982L90.0424 82.4963ZM101.709 82.2758L96.4299 69.4499H100.456L103.639 78.199L106.823 69.4499H110.848L105.569 82.2758H101.711H101.709ZM117.172 82.4963C113.51 82.3417 110.666 79.2488 110.82 75.5849C110.975 71.9228 114.068 69.0787 117.732 69.2332C121.284 69.3821 124.089 72.3073 124.091 75.8638C124.076 79.5448 121.077 82.517 117.396 82.502C117.321 82.502 117.245 82.5001 117.17 82.4963H117.174H117.172ZM125.504 80.7548H124.916V82.2796H124.562V80.7548H123.991V80.4344H125.499L125.502 80.7548H125.504ZM127.758 82.2796H127.417V80.9678L126.846 81.8555H126.792L126.224 80.9678V82.2796H125.883V80.4344H126.258L126.816 81.3089L127.374 80.4344H127.742L127.758 82.2796Z" fill="#E13939"/>
</svg>
