<?xml version="1.0" encoding="UTF-8"?>
<svg xmlns="http://www.w3.org/2000/svg" width="70" height="70" viewBox="0 0 70 70" fill="none">
  <path fill-rule="evenodd" clip-rule="evenodd" d="M0 12C0 5.37258 5.37258 0 12 0H58C64.6274 0 70 5.37258 70 12V58C70 64.6274 64.6274 70 58 70H12C5.37258 70 0 64.6274 0 58V12Z" fill="#CFECFD"></path>
  <path fill-rule="evenodd" clip-rule="evenodd" d="M45.875 50.125H23.125C21.3294 50.125 19.875 48.6706 19.875 46.875V24.125C19.875 22.3294 21.3294 20.875 23.125 20.875H45.875C47.6706 20.875 49.125 22.3294 49.125 24.125V46.875C49.125 48.6706 47.6706 50.125 45.875 50.125Z" stroke="#052D57" stroke-width="2" stroke-linecap="round" stroke-linejoin="round"></path>
  <path d="M39.3753 27.3652V34.6777" stroke="#052D57" stroke-width="2" stroke-linecap="round" stroke-linejoin="round"></path>
  <path d="M39.3753 41.1973V43.6348" stroke="#052D57" stroke-width="2" stroke-linecap="round" stroke-linejoin="round"></path>
  <path d="M41.6734 35.6296C42.9426 36.8988 42.9426 38.9566 41.6734 40.2258C40.4042 41.495 38.3464 41.495 37.0772 40.2258C35.808 38.9566 35.808 36.8988 37.0772 35.6296C38.3464 34.3604 40.4042 34.3604 41.6734 35.6296" stroke="#052D57" stroke-width="2" stroke-linecap="round" stroke-linejoin="round"></path>
  <path d="M29.6253 43.6348V36.3223" stroke="#052D57" stroke-width="2" stroke-linecap="round" stroke-linejoin="round"></path>
  <path d="M29.6253 29.8027V27.3652" stroke="#052D57" stroke-width="2" stroke-linecap="round" stroke-linejoin="round"></path>
  <path d="M31.9234 30.7546C33.1926 32.0238 33.1926 34.0816 31.9234 35.3508C30.6542 36.62 28.5964 36.62 27.3272 35.3508C26.058 34.0816 26.058 32.0238 27.3272 30.7546C28.5964 29.4854 30.6542 29.4854 31.9234 30.7546" stroke="#052D57" stroke-width="2" stroke-linecap="round" stroke-linejoin="round"></path>
</svg>
