<svg width="165" height="150" viewBox="0 0 165 150" fill="none" xmlns="http://www.w3.org/2000/svg">
<rect width="165" height="150" fill="white"/>
<path d="M125.736 78.6826L133 84.9023V79.9276L127.192 74.9547L133 69.9765V65.0018L122.85 73.7008V71.2197L115.586 65V69.9747L121.394 74.9476L115.586 79.9259V84.9005L125.736 76.2015V78.6826Z" fill="#006340"/>
<path d="M43.096 73.3591L39.8368 72.7366C38.0212 72.3878 37.2252 71.9656 37.2252 70.971C37.2252 69.5775 38.7922 68.8566 40.7581 68.8566C42.8224 68.8566 44.663 69.6527 45.062 71.3449H48.5448C48.1459 68.1107 45.2355 65.9963 40.7581 65.9963C36.6295 65.9963 33.3703 67.812 33.3703 71.0962C33.3703 73.9566 35.8084 75.4001 39.0676 76.0208L42.3268 76.6434C44.1425 76.9922 45.0637 77.5646 45.0637 78.6826C45.0637 80.1995 43.3715 81.0456 41.2822 81.0456C38.7206 81.0456 37.0033 79.8024 36.6062 77.9367H33C33.5223 81.6681 36.4578 83.9077 41.284 83.9077C45.5879 83.9077 48.9204 82.1672 48.9204 78.5592C48.9204 75.3751 46.3588 73.9816 43.0996 73.3609L43.096 73.3591Z" fill="#006340"/>
<path d="M57.2008 68.1108V66.2451H53.5946V67.6136C53.5946 69.2306 52.8486 69.9766 51.2315 69.9766H50.2119V72.7135H53.0722V79.4305C53.0722 82.416 54.5391 83.6592 58.0219 83.6592H60.9823V80.9223H58.3456C57.1024 80.9223 56.6785 80.5485 56.6785 79.4305V72.7135H60.9823V69.9766H55.6338L57.2008 68.1108Z" fill="#006340"/>
<path d="M88.3959 81.171C85.7843 81.171 84.1171 79.3303 84.1171 76.8421C84.1171 74.3539 85.7843 72.5132 88.3959 72.5132C90.4101 72.5132 91.8537 73.633 92.2276 75.0014H95.7855C95.138 71.7672 92.3277 69.7781 88.3977 69.7781C83.6967 69.7781 80.4375 72.6133 80.4375 76.8421C80.4375 81.0708 83.6967 83.9061 88.3977 83.9061C92.3277 83.9061 95.4134 81.9152 95.9107 78.5576H92.3528C91.9789 79.8008 90.6355 81.1692 88.3977 81.1692L88.3959 81.171Z" fill="#006340"/>
<path d="M70.4846 69.7781C65.6334 69.7781 62.5244 72.6133 62.5244 76.8421C62.5244 81.0708 65.6334 83.9061 70.4846 83.9061C75.3359 83.9061 78.4448 81.0708 78.4448 76.8421C78.4448 72.6133 75.3359 69.7781 70.4846 69.7781ZM70.4846 81.171C67.873 81.171 66.2058 79.3303 66.2058 76.8421C66.2058 74.3539 67.873 72.5132 70.4846 72.5132C73.0963 72.5132 74.7635 74.3539 74.7635 76.8421C74.7635 79.3303 73.0963 81.171 70.4846 81.171Z" fill="#006340"/>
<path d="M105.213 76.3948L112.701 69.9766H107.849L101.73 75.3502V66.2451H98.1235V83.6592H101.73V79.3804L103.892 77.5272L109.143 83.6592H113.72L107.5 76.3948H105.213Z" fill="#006340"/>
</svg>
